<?xml version="1.0" encoding="utf-8"?>
<!-- Generator: Adobe Illustrator 22.1.0, SVG Export Plug-In . SVG Version: 6.00 Build 0)  -->
<svg version="1.1" id="Layer_1" xmlns="http://www.w3.org/2000/svg" xmlns:xlink="http://www.w3.org/1999/xlink" x="0px" y="0px"
	 viewBox="0 0 112.6 224.8" style="enable-background:new 0 0 112.6 224.8;" xml:space="preserve">
<style type="text/css">
	.st0{clip-path:url(#SVGID_2_);}
	.st1{opacity:0.5;clip-path:url(#SVGID_4_);}
	.st2{clip-path:url(#SVGID_6_);fill:#808285;}
</style>
<g>
	<defs>
		<rect id="SVGID_1_" width="112.6" height="224.8"/>
	</defs>
	<clipPath id="SVGID_2_">
		<use xlink:href="#SVGID_1_"  style="overflow:visible;"/>
	</clipPath>
	<g class="st0">
		<defs>
			<rect id="SVGID_3_" width="112.6" height="224.8"/>
		</defs>
		<clipPath id="SVGID_4_">
			<use xlink:href="#SVGID_3_"  style="overflow:visible;"/>
		</clipPath>
		<g class="st1">
			<g>
				<defs>
					<rect id="SVGID_5_" width="112.6" height="224.8"/>
				</defs>
				<clipPath id="SVGID_6_">
					<use xlink:href="#SVGID_5_"  style="overflow:visible;"/>
				</clipPath>
				<path class="st2" d="M74.8,56.9c1.9-1.3,3.5-2.9,5.3-4.1c2.7-1.7,5.4-3.4,8.2-5c3.4-2,6.3-4.4,8.9-7.3c0.3-0.3,0.6-0.9,1.1-0.5
					c0.6,0.4,0.2,0.9,0,1.3c-4.2,7.8-10.1,13.8-19,16.1c-1.5,0.4-3,1-4.5,1.4c-0.6,0.2-0.9,0.6-1.2,1.2c-0.8,2.2-1.1,4.4-0.9,6.8
					c0.4,7.6,0,15.1-1.4,22.6c-0.5,2.8-1.2,5.6-1.9,8.4c1.2-2,2.8-3.7,3.5-6c1.8-6.2,4.9-11.9,8.4-17.3c3.3-5.2,7.2-9.8,11-14.7
					c2.6-3.4,4.7-7,6.5-10.8c0.2-0.4,0.3-0.9,0.4-1.3c0.1-0.3,0.1-0.7,0.5-0.6c0.4,0.1,0.3,0.5,0.3,0.8c-0.1,1.1-0.3,2.3-0.5,3.4
					c-0.8,4.2-1.6,8.4-2.9,12.5c-2.4,7.9-6.8,14.6-12.1,20.8c-3.2,3.8-6.7,7.2-10.5,10.4c-2.7,2.2-4.3,5.2-5.8,8.2
					c-3.1,6.1-5.2,12.6-8.4,18.7c1.2-0.7,2.1-1.7,3.1-2.7c1.8-1.7,3.6-3.4,5.6-4.8c1.7-1.2,2.5-3,3.2-4.8c3.1-7.8,8.3-13.9,15-18.7
					c2.7-1.9,5.4-3.8,8.5-5.1c0.2-0.1,0.5-0.5,0.7-0.2c0.3,0.3,0,0.5-0.2,0.8c-1.7,3.1-4.3,5.5-6.5,8.1c-3.8,4.6-7.6,9-11.7,13.3
					c-0.1,0.1-0.1,0.2-0.3,0.5c1.6-0.8,3-1.5,4.4-2.2c6.3-3,12.8-5.1,19.7-6.1c3.4-0.5,6.7-1.5,10.1-2.3c0.4-0.1,0.9-0.4,1.2,0
					c0.3,0.5-0.3,0.7-0.5,1.1c-3.2,5-7.9,8.1-13.1,10.3c-3.7,1.6-7.7,2.1-11.7,2.6c-4.3,0.5-8.6,1.1-12.8,1.9
					c-2.8,0.5-5.6,1.3-7.6,3.6c-0.1,0.1-0.2,0.2-0.3,0.3c0.2,0.3,0.4,0.2,0.5,0.1c5.1-1.3,10.3-1.1,15.4-0.2c4,0.7,8,1.5,12,2.3
					c0.4,0.1,0.9,0,0.9,0.5c0,0.4-0.6,0.4-0.9,0.4c-2,0.1-4,0.6-6,1c-3.8,0.7-7.6,1.2-11.5,0.8c-1.9-0.2-3.7-0.7-5.5-1.2
					c-2.1-0.6-4.3-1-6.5-1.2c-0.9-0.1-1.6,0.1-2.2,0.8c-1.1,1.3-2.3,2.7-3.5,3.8c-3.9,3.8-5.4,8.9-8,13.4c-2,3.5-3.8,7.1-5.5,10.8
					c-2,4.5-3.5,9.1-4.5,13.9c-0.5,2.2-1.1,4.4-1.4,6.7c0.6,0,0.7-0.5,1-0.8c2.7-3,5.5-6,8.9-8.3c1.7-1.1,2.1-3.1,2.8-4.9
					c1.1-2.9,1.5-5.9,2.3-8.9c1.2-4.5,2.9-8.8,5.9-12.4c1.8-2.1,4-3.7,6.7-4.7c0.5-0.2,1.2-0.3,0.9,0.5c-2,4.8-2.8,10.1-5.8,14.5
					c-1,1.5-2.1,3-3.4,4.3c-2.8,2.8-5.6,5.6-6.6,9.7c0.2,0.2,0.4-0.1,0.6-0.2c0.6-0.3,1.1-0.6,1.6-0.9c3.6-1.8,6.7-4.2,9.6-7.2
					c3.9-4.1,8.7-7,13.9-9.4c4.5-2.1,9-4.2,13-7.2c0.3-0.2,0.6-0.4,0.8-0.7c0.3-0.2,0.5-0.7,0.9-0.4c0.4,0.3,0,0.7-0.2,1
					c-0.5,0.7-1,1.4-1.4,2.1c-3.3,4.9-7.2,9.1-12.1,12.4c-3.8,2.6-8,4.2-12.5,5c-4.8,0.8-8.8,3.2-12.9,5.7c1.3,0.4,2.6,1.1,4,1.1
					c2,0,4.1-0.2,6-0.7c6.1-1.6,12.2-1.5,18.4-0.8c2.5,0.3,5,0.9,7.5,1.3c1,0.1,2.1-0.1,3.2-0.1c-0.4,0.9-1.2,1-1.8,1.4
					c-6.1,3.9-12.8,4.9-19.9,3.9c-2.2-0.3-4.3-0.8-6.4-1.6c-3.2-1.2-6.5-2-9.7-3c-1.8-0.6-3.5-0.2-5,0.9c-4.3,3-7.5,6.9-10,11.5
					c-1.4,2.6-1.4,5.3-1.5,8C38.3,193.4,40.2,206,45,218c0.7,1.9,1.8,3.6,2.8,5.3c0.2,0.4,0.7,0.9,0.2,1.3c-0.5,0.4-1-0.1-1.3-0.5
					c-1.2-1.3-2-2.7-2.7-4.3c-4-8.5-5.8-17.5-6.8-26.8c-0.8-7.7-0.2-15.4,1.1-23c0.5-2.9,1.1-5.7,1.8-8.5c0.3-1-0.3-1.7-0.6-2.6
					c-0.2-0.8-0.4-1.8-1.6-1.9c-0.2,0-0.4-0.2-0.5-0.4c-0.5-0.9-1.4-0.9-2.2-0.9c-3.8,0-7.7,0.3-11.5,0.1
					c-6.9-0.3-12.7-3.2-17.7-7.8c-1.9-1.7-3.6-3.6-5.3-5.3c-0.3-0.3-0.6-0.6-0.4-1.1c0.2-0.6,0.7-0.5,1.1-0.5c2.6,0,5.2,0.5,7.8,1
					c8.4,1.7,15.8,5.4,22.8,10.2c1.5,1.1,3.2,1.9,4.9,2.8c0.1,0.1,0.3,0,0.6,0.1c-0.6-1.2-1.4-2-2.2-2.8c-1.7-1.7-3.7-3.1-5.5-4.6
					c-8.7-7.2-14.8-16.1-17.7-27.1c-0.1-0.2-0.1-0.5-0.2-0.7c-0.1-0.3,0-0.7,0.3-0.8c0.4-0.2,0.7,0.1,0.9,0.4c1.7,2.6,3.8,4.8,5.9,7
					c1.2,1.2,2.4,2.5,3.7,3.6c4.8,4.2,8.2,9.3,10.9,14.9c0.7,1.4,1.3,2.8,1.9,4.3c1.1,2.9,3.2,5.3,4.9,7.9c0.4,0.6,0.8,0.8,1.1-0.2
					c1.3-5.2,3.7-9.9,6.1-14.7c0.6-1.2,0.5-2.8,0.7-4.2c0.6-4.3,1.2-8.6,0.9-13c-0.1-1.7-1.1-2.9-2.2-4c-0.5-0.5-1.3-0.3-1.9-0.3
					c-1.7-0.1-3.4,0-5-0.1c-5.1-0.6-9.2-2.9-12.6-6.6c-2.9-3.1-5.1-6.6-7-10.4c-0.1-0.3-0.4-0.6,0-0.8c0.3-0.2,0.5,0.1,0.7,0.3
					c2.4,2.3,5.5,3.2,8.5,4.5c4.4,2,8.9,3.9,13,6.6c2.4,1.6,4.5,3.7,5.9,6.3c0.4-0.4,0.2-0.7,0.1-1c-0.2-1.4-0.5-2.8-0.6-4.2
					c-0.1-2.1-1-3.8-2.3-5.4c-2.4-2.7-3.7-6.1-5.3-9.3c-4.1-8-5.8-16.7-6.6-25.6c-0.2-2.2-0.4-4.4-0.6-6.7c0-0.3-0.2-0.5,0.2-0.8
					c0.7,1.5,1.4,2.9,2.2,4.4c2.9,5.9,6.5,11.4,9.4,17.3c2.6,5.2,4.7,10.6,4.8,16.6c0,1.4,0,2.8-0.3,4.2c-0.3,1.6-0.4,3.2,0,4.8
					c0.5,2.4,0.8,4.8,1.4,7.2c0.2-2.4,0.4-4.9,0.7-7.3c0.6-4.5,1.9-8.8,3.1-13.2c0.9-3,1.4-6,1.5-9.1c0-1.4-0.1-2.8-0.4-4.2
					c-0.1-0.3-0.3-0.8,0.1-0.9c0.4-0.1,0.5,0.4,0.6,0.7c1.3,4.5,2.1,9.2,2,13.9c0,5.1-0.7,10-2.6,14.7c-1.1,2.8-2.5,5.4-3.7,8.1
					c-0.6,1.3-1,2.6-1,4.1c0.1,1.8-0.2,3.5-0.4,5.3c-0.1,0.6-0.1,1.2,0.3,2c0.9-1.7,1.7-3.2,2.5-4.8c3-5.8,6.1-11.5,8.7-17.4
					c1.9-4.1,3.6-8.4,5.1-12.7c1.1-3,1.9-6,2.6-9.1c1.1-4.6,1.7-9.2,2-13.9c0-0.6-0.1-1.1-0.4-1.5c-2.4-3.8-5.7-6.6-9.5-8.9
					c-2-1.2-4.2-1.7-6.5-2c-4.1-0.6-8.1-1.8-11.9-3.3c-8.9-3.6-14-10.8-18.2-18.9c-0.3-0.6-0.9-1.4-0.3-1.9c0.7-0.7,1.2,0.3,1.8,0.7
					c6.8,4.3,13.3,8.8,20.2,12.8c4.7,2.7,8.7,6.4,12.7,10c0.7,0.7,1.5,1.2,2.7,1.6c-0.6-0.8-1-1.3-1.4-2c-2.7-3.9-4.9-8.1-7.5-12
					c-2.4-3.6-5-7-8-10.1c-0.3-0.3-0.8-0.5-0.5-0.9c0.3-0.4,0.8-0.1,1.1,0.2c1.5,0.8,3,1.7,4.5,2.5c3.4,1.7,5.7,4.5,7.7,7.6
					c2.6,4.1,4.4,8.5,5.9,13.1c0.8,2.5,2,4.7,4.1,6.5c1.2,1,2.3,2.2,3.4,3.4c0.5-0.3,0.3-0.8,0.3-1.1c0.2-8.8-0.4-17.6-3.4-26
					c-0.3-0.9-0.7-1.4-1.7-1.8c-6.1-2.6-11.8-6-16.9-10.3c-2.5-2.1-4.9-4.3-7.3-6.5c-1.3-1.2-2.6-2.5-4.2-3.4
					c-0.2-0.1-0.4-0.3-0.2-0.7c4.9,2.1,9.9,3.6,14.6,6.2c4.7,2.6,8.9,5.7,12.6,9.7c-0.1-1-1.9-4.8-2.7-5.9c-1.7-2.2-3.9-4.1-5.9-6.1
					c-4.2-3.9-8.4-7.9-11.7-12.7c-2.1-3-3.5-6.3-4.8-9.7c-0.8-2-1.6-3.9-3-5.6C37,0.8,36.7,0.5,37,0.2c0.3-0.3,0.7-0.1,1,0.1
					c2.5,1.1,4.7,2.7,6.8,4.3c9.7,7.1,16.1,16.5,19.4,28.1c1.3,4.7,3.2,9.1,4.8,13.7c0.3,0.9,0.3,1.9,0.9,2.9
					c0.8-5.8,2-11.5,2.7-17.3c0.5-5,1.3-9.9,1.6-15c0.1-1.9,0.1-3.8-0.2-5.7c0-0.3-0.1-0.7,0.3-0.8c0.4-0.2,0.6,0.2,0.7,0.5
					c0.9,2.3,2.3,4.3,3.2,6.6c1.6,4.4,1.3,8.7-0.1,13.1c-1.1,3.5-2.9,6.7-4.6,9.9c-1.7,3.4-2.3,7-2.5,10.8c-0.1,3,1,5.7,1.1,8.6
					c0.1,0,0.2,0,0.3,0.1c0.5-1.1,1.1-2.1,1.5-3.2c0.6-1.4,1.6-2.5,2.2-3.9c0.9-2.1,1.8-4.3,2.6-6.4c2.2-6.4,5.6-12.3,9.2-18.1
					c2-3.2,4-6.4,6-9.6c0.5-0.9,1-1.8,1.2-2.8c0.1-0.3,0.3-0.6,0.7-0.5c0.4,0.1,0.4,0.5,0.3,0.8c-1.6,6.5-2.3,13.2-5.7,19.1
					c-2.1,3.6-4.6,6.9-7.4,10c-2.5,2.7-4.8,5.6-6.9,8.6C75.6,54.8,75.3,55.9,74.8,56.9 M1.5,141.9c0.3,0.3,0.4,0.5,0.5,0.6
					c3.4,3.1,7.4,5,11.6,6.6c3.5,1.3,7.2,1.8,10.7,2.7c2.6,0.7,5.2,1.5,7.8,2.3c0.2,0.1,0.4,0.1,0.6,0.2c0.2,0,0.4,0.2,0.5,0.1
					C23.5,148.5,13.6,142.8,1.5,141.9 M48.1,110c0.4-1.4,0.5-2.8,0.5-4.2c-0.1-5.9-2.3-11.2-4.9-16.3c-2.4-4.7-5.1-9.1-7.6-13.7
					c-0.4-0.6-0.7-1.3-1.1-2c-0.2,0.6,0,1,0.1,1.4c1.8,6.2,4.3,12.2,6.4,18.3c1.3,3.8,3.3,7.2,4.8,10.9
					C47.1,106.2,47.5,108.1,48.1,110 M61.6,32.5c-6.4-9.9-12.5-20.1-21.4-28.4c0.1,1.2,0.6,1.9,1,2.7c1.3,3,2.4,6.1,4.3,8.9
					c2.9,4.3,6.6,7.9,10.3,11.4C57.7,29,59.7,30.7,61.6,32.5 M97.4,55.9c-0.4,0.4-0.6,0.8-0.7,1.3c-1.5,3.7-3,7.4-5.3,10.7
					c-2.9,4.1-5.9,8.2-8.7,12.4c-2.5,3.8-4.7,7.9-7.5,11.6c0,0.1,0,0.2,0,0.4C86.4,82.4,94.7,70.8,97.4,55.9 M96.9,54.1
					c-1.7,2.5-3.3,5-5.2,7.4c-5.3,6.9-10.7,13.7-14.4,21.6c-1,2.1-1.9,4.3-2.8,6.4c0.3,0,0.5-0.1,0.6-0.3c7-9.8,14.7-19.1,19.7-30.2
					C95.6,57.5,96.2,55.8,96.9,54.1 M75.5,110c0,0.1,0.1,0.2,0.1,0.2c1.9-0.7,3.7-1.4,5.6-2c4.6-1.5,9.4-2.1,14.1-3
					c5.3-1,10.1-3,14.6-6.5c-0.6,0.1-1,0.2-1.3,0.2c-2.3,0.5-4.6,1.1-6.9,1.4c-8.7,1.3-16.9,4-24.5,8.5
					C76.6,109.3,76,109.6,75.5,110 M73.1,112.7c0.3,0,0.5-0.1,0.8-0.1c4.2-1,8.4-1.5,12.7-2c6.7-0.7,13.1-2.2,18.8-6.3
					c1.8-1.3,3.4-2.8,4.7-4.6c-0.4,0.1-0.8,0.3-1.1,0.5c-4.3,3.1-9,5.1-14.2,6.1c-4.3,0.8-8.7,1.5-12.9,2.7
					C78.8,109.9,75.8,110.9,73.1,112.7 M56.5,65.5c0.1-0.1,0.1-0.2,0.2-0.3c-1.6-0.8-3.1-1.6-4.7-2.3c-3.6-1.8-7.4-3.3-10.9-5.5
					c-5.3-3.4-9.5-7.9-13.7-12.4c-0.3-0.3-0.4-0.8-1-0.8C32.1,57.4,43,63.3,56.5,65.5 M56.6,64c-2.6-2.6-5.2-5-8.3-6.9
					c-4-2.5-8-4.9-11.9-7.5c-2.8-1.9-5.6-3.8-8.4-5.7c-0.1,0.1-0.2,0.2-0.3,0.3c0.1,0.1,0.3,0.2,0.4,0.3c3.7,4.2,7.6,8.1,12.3,11.2
					c3.8,2.6,8.1,4.4,12.3,6.4C54,62.8,55.3,63.4,56.6,64 M46.9,110.8c-0.1-0.5-0.1-0.9-0.2-1.3c-0.7-3.2-1.7-6.2-3.1-9.1
					c-2.4-5.1-4.4-10.4-6.2-15.8c-1.1-3-2.1-6-3.1-9.1C35.6,88.3,39.1,100.2,46.9,110.8 M62.9,152.7c2.6-1.4,4.9-2.6,7.3-3.8
					c4.8-2.4,9.5-4.9,13.9-8c2.4-1.7,4.4-3.7,6.2-6.1c-0.5,0.1-0.8,0.4-1.2,0.6c-3.9,2.4-7.8,4.6-11.9,6.5
					c-3.7,1.8-7.2,3.9-10.3,6.5C65.4,149.8,64.1,151,62.9,152.7 M33.8,148.7c-2.5-5.9-5.5-11.5-10.1-16.1c-3.2-3.2-6.5-6.5-9.4-10
					c-0.1-0.1-0.2-0.4-0.7,0C18.6,132.6,26.8,140.2,33.8,148.7 M40.7,3.3c9,8.6,15.5,19,22.3,29.3C59.2,20,51.8,10.3,40.7,3.3
					 M90.1,160.5c-6.8-2.4-25.1-2.3-28.6,0C71.1,162,80.6,162.1,90.1,160.5 M71.6,111.5c1.4-0.9,2.4-2.2,3.3-3.6
					c2.1-2.8,3.8-5.7,6-8.4c3.2-3.9,7.1-7.2,10.7-10.8c0.3-0.3,0.7-0.4,0.7-1C82.6,93.3,75,100.5,71.6,111.5 M22.2,106.3
					c0.8,1.6,1.8,3.1,2.8,4.5c3.6,4.7,7.9,8.3,13.9,9.2c1.7,0.3,3.4,0.1,5.4,0C31.5,114.3,29.8,113,22.2,106.3 M63.8,67.7
					c0.1-0.1,0.2-0.1,0.3-0.2c-0.6-1.7-1.2-3.5-1.9-5.2c-1.9-4.7-4-9.3-7.3-13.2c-1.9-2.2-4.3-3.6-7-4.8
					C54.4,51.3,58.5,59.9,63.8,67.7 M56.6,95.8c-0.1,1-0.2,2-0.5,3c-1,4.2-2.2,8.4-3.2,12.7c-0.8,3.4-1,6.9-1.3,10.6
					C56.4,113.8,57.9,105.1,56.6,95.8 M32.5,155c-3.4-1.2-7-2.2-10.6-2.9c-4.4-0.9-8.7-2-12.7-4c-0.8-0.4-1.6-1.2-2.6-1.1
					C13.8,154.2,22.9,155.5,32.5,155 M24.8,106.9c6,5.8,13.4,9,20.9,12.1C39.9,112.9,32,110.4,24.8,106.9 M32.8,149
					c-6.2-7.3-12.7-14.4-17.9-22.5C18.3,136,24.3,143.5,32.8,149 M66.7,131.9c-4.9,5.7-8.1,12-10.7,18.6
					C61.5,145.6,64.8,139.3,66.7,131.9 M44.7,29.5c3.3,4.3,18.7,14.9,22,15.1C59.4,39.2,52.2,34,44.7,29.5 M85.9,140.6
					c-5.9,4.8-13,7.5-19.4,11.4C74.4,150.7,81,147.1,85.9,140.6 M87.5,161.8c-7.8,0.6-15.6,1-23.4,0
					C71.9,164.4,79.7,165.4,87.5,161.8 M80.4,45.3c4.8-6.8,9.2-13.8,11.8-21.8C87.6,30.5,83.2,37.5,80.4,45.3 M66.2,131
					c-5,1.8-11.3,12.8-11.2,19.6C57.6,143.4,61.5,137,66.2,131 M67.8,118.5c7.2-0.4,14.2,1.8,21.4,1.2
					C82.1,118,75.1,116.6,67.8,118.5 M88,120.6c-0.1-0.1-0.1-0.1-0.1-0.1c-5.3,0.2-10.4-1.3-15.7-1.4c-0.8,0-1.6-0.1-2.4-0.1
					c-0.8-0.1-1.5-0.1-2.2,0C74.3,121,81,122.2,88,120.6 M93.1,23.5C90.3,31,86.7,38.2,82,44.7C87.5,38.6,91.8,31.9,93.1,23.5
					 M63.4,41c-5.1-5.5-11.3-9.3-18.3-12.1C51.4,32.7,57.3,37,63.4,41 M91.8,89.9c-4.3,2.9-14,14.2-14.7,16.9
					C82.6,101.7,86.5,95.3,91.8,89.9 M75.2,18.6C74.4,25,73.9,31.4,73,37.7C75.1,31.5,76.5,25.2,75.2,18.6 M75.2,34
					c3.7-7.4,3.1-15,1-17.5C76.8,22.3,76.7,28.2,75.2,34 M78.3,56.3c5.2-1.3,9.8-3.6,13.2-7.8C87.3,51.3,82.8,53.9,78.3,56.3
					 M79.7,54.3c5-2.5,10.1-4.6,14-8.8C89.1,48.7,84.1,51,79.7,54.3"/>
			</g>
		</g>
	</g>
</g>
</svg>
