<?xml version="1.0" encoding="utf-8"?>
<!-- Generator: Adobe Illustrator 22.1.0, SVG Export Plug-In . SVG Version: 6.00 Build 0)  -->
<svg version="1.1" id="Layer_1" xmlns="http://www.w3.org/2000/svg" xmlns:xlink="http://www.w3.org/1999/xlink" x="0px" y="0px"
	 viewBox="0 0 65.8 101.1" style="enable-background:new 0 0 65.8 101.1;" xml:space="preserve">
<style type="text/css">
	.st0{clip-path:url(#SVGID_2_);fill:#D7E9E6;}
</style>
<g>
	<defs>
		<rect id="SVGID_1_" width="65.8" height="101.1"/>
	</defs>
	<clipPath id="SVGID_2_">
		<use xlink:href="#SVGID_1_"  style="display:none;overflow:visible;"/>
	</clipPath>
	<path class="st0" d="M52.6,42.4c0.4-2.9,0.4-5.4,0-7.9c-0.1-0.6-0.1-1.4-0.8-1.4c-0.7,0-0.7,0.8-0.8,1.3c-0.5,3.3-1.7,6.5-2.8,9.6
		c-0.3,1-0.9,1.6-1.9,2c-3.8,1.5-7.2,3.7-10.5,6.1c-0.4,0.3-0.7,0.5-1.3,0.6c1-1.8,2.1-3.6,3.1-5.4c3.3-6,6.4-12.1,8.7-18.6
		c1.2-3.4,2.9-6.7,3.8-10.2c1.6-5.7,2.7-11.5,2.7-17.5c0-0.3,0.1-0.7-0.2-0.8c-0.5-0.1-0.8,0.2-0.9,0.6c-1.5,3.7-3.8,7-5.4,10.7
		c-1.9,4.4-2.9,9.1-4.2,13.6c-1.7,6.3-3.9,12.5-6.3,18.5c-0.9,2.3-2,4.6-3.1,6.9c-0.3,0.7-0.7,1.3-1.6,1.9c1.9-5,2.6-10,2.9-15.1
		c0.1-1.3,1.1-2.3,1.8-3.4c1.9-3,3.4-6.1,4.4-9.4c0.1-0.4,0.3-0.9,0.2-1.3c-0.1-0.4-0.2-0.7-0.5-0.9c-0.4-0.2-0.7,0.2-0.9,0.5
		C38,24,37,25.4,35.7,27.1c-0.2-1.6,0.3-2.7,0.5-3.8c0.5-3,1.2-5.9,1.8-8.9c0.1-0.7,0.5-1.5-0.4-1.9c-0.8-0.4-1.3,0.4-1.7,1
		c-1.2,1.6-2,3.5-2.7,5.4c-1.6,4.3-2.8,8.7-3.5,13.2c-0.2,1.5-1,2.8-1.8,4c-1.6,2.6-2.6,5.3-3.7,8.1c-3.3,8.6-4.6,17.5-4.9,26.7
		c0,0.2,0.1,0.6-0.1,0.7c-1.8,2.4-3.5,4.9-5.9,6.8c0.4-1.1,0.9-2.1,1.2-3.2c3.5-11.4,5.1-23.1,5.2-34.9c0.1-7,1-13.9,2.2-20.7
		c0-0.2,0.1-0.4,0.1-0.6c-0.1-0.5,0.3-1.1-0.3-1.3c-0.7-0.2-0.9,0.4-1.2,0.9c-3.4,5.8-5.2,12.1-6,18.6c-1.3,9.7-1.1,19.6-1.6,29.3
		c-0.3,5.6-1.8,11-3.8,16.3C7.7,69.2,4,56,5.1,42.4c0.1-1.9,0.5-3.7,0.7-5.5c0.1-0.6,0.3-1.3-0.5-1.5c-0.7-0.2-1.1,0.3-1.4,0.9
		c-1.8,3.1-3.3,6.3-3.6,10c-0.5,6.7-0.3,13.2,1.9,19.6c1.1,3.2,2.5,6.3,3.8,9.4c1.7,4.3,1.7,8.8,0.6,13.2c-0.4,1.6-1.7,2.9-2.6,4.4
		c-1.2,2.1-2.3,4.3-3.2,6.5c-0.2,0.5-0.7,1.2-0.1,1.5c0.6,0.3,1.4,0,1.8-0.6C3,99.5,3.5,98.6,4,97.7c0.7-1.2,1.2-2.6,1.9-3.8
		c0.5-0.8,1.2-1.4,1.9-2c3.6-2.9,7.9-2.7,11.9-2.9c11.5-0.5,19.8-6.5,26.8-14.9c1.4-1.7,2.8-3.5,4.1-5.4c0.2-0.4,0.6-0.6,0.2-1
		c-0.4-0.5-0.8-0.2-1.2,0.2c-0.8,0.9-1.7,1.7-2.5,2.7c-3.9,4.6-8.9,7.4-14.5,9.4c-5.1,1.8-10.4,2.9-15.2,5.3c-2.1,1-4.2,2.2-6.3,3.3
		c-0.5,0.2-1.1,0.7-1.5,0.2c-0.3-0.4,0.3-0.8,0.5-1.2c1-1.9,2.9-2.9,4.5-4.2c3.8-3.2,8.1-5.8,12.4-8.1c9.7-5.3,17.2-12.8,22.2-22.7
		c0.5-1,0.9-2,1.3-3.1c0.2-0.5,0.5-0.7,0.9-1c5.1-3.8,9.5-8.4,12.9-13.8c0.6-1,0.9-2.1,1.3-3.2c0.1-0.3,0.4-0.8-0.1-1.1
		c-0.5-0.2-0.7,0.2-1,0.5c-2.3,3.1-5.1,5.7-8,8.3C55.3,40.1,54.1,41.1,52.6,42.4 M44.4,52.3c-4.4,7-9,13.5-15.4,18.5
		c-3.3,2.6-6.9,4.9-10.3,7.5c-1.9,1.4-3.7,3.1-5.6,4.6c0.5-1,1-2,1.7-2.9c4.2-5.4,9-10.4,12.5-16.4c1.5-2.5,3.5-4.1,6-5.3
		c2.7-1.3,5.3-2.8,7.8-4.5C42,53.3,43,52.7,44.4,52.3 M21.8,67.7c1.3-7.6,3.6-14.8,6.1-22c0,4.4-0.4,8.7-1,13
		C26.4,62.3,23.6,64.7,21.8,67.7"/>
</g>
</svg>
