<?xml version="1.0" encoding="utf-8"?>
<!-- Generator: Adobe Illustrator 24.0.1, SVG Export Plug-In . SVG Version: 6.00 Build 0)  -->
<svg version="1.1" id="Слой_1" xmlns="http://www.w3.org/2000/svg" xmlns:xlink="http://www.w3.org/1999/xlink" x="0px" y="0px"
	 viewBox="0 0 740.79 261.49" style="enable-background:new 0 0 740.79 261.49;" xml:space="preserve">
<style type="text/css">
	.st0{fill-rule:evenodd;clip-rule:evenodd;fill:#FFFFFF;}
	.st1{fill:#FFFFFF;}
</style>
<path class="st0" d="M46.77,112.25c0-2.91,2.38-10.71,10.6-10.71c7.61,0,12.1,10.63,11.96,25.19c0,35.19-14.34,72.43-31,72.43
	c-7.34,0-18.49-5.67-18.49-32.43c0-29.05,7.27-45.82,13.05-54.48c5.71-8.34,1.09-8.03-4.62-3.78C15.64,118,0,138.08,0,168.94
	c0.14,31.57,22.5,37.55,32.36,37.47c25.02,0,48.4-37.37,48.4-78.73c0-27.13-16.5-30.54-21.21-30.54c-6.62,0-23.66,4.72-23.66,25.19
	c0,14.17,8.57,15.82,11.15,16.06c4.85,0,8.97-4.3,8.97-9.76C56.01,117.71,46.77,120.73,46.77,112.25L46.77,112.25z M616.31,162.64
	c0.84-4.49,3.62-4.93,4.89-5.35c1.27-0.42,5.39-1.52,6.8-1.89c6.39-1.02,4.35,3.46,3.81,6.3c-0.68,3.54-5.12,17.16-6.8,24.25
	c-1.68,7.09-1.18,13.23,2.99,13.23c4.66,0,9.7-5.09,12.99-9.15c1.8-1.82,2.67-0.27,2.29,0.96c-2.11,6.32-7.53,15.44-21.27,15.44
	c-7.27,0-11.3-4.28-11.73-10.84c-2.99,5.39-8.64,10.84-19.26,10.84c-6.57,0-10.5-3.5-11.51-9.01c-3.21,4.73-8.72,9.01-18.13,9.01
	c-7.27,0-11.3-4.28-11.73-10.84c-2.99,5.39-8.64,10.84-19.26,10.84c-7.12,0-11.13-4.1-11.7-10.43
	c-3.27,3.75-10.04,10.43-16.74,10.43c-13.73,0-17.54-17.24-17.4-18.89c5.44-5.28,15.7-11.1,15.77-17.32c0-3.7-2.18-4.25-2.18-8.5
	c0-4.02,2.45-7.56,7.89-7.56c4.15,0,6.25,3.94,6.25,7.56c0,5.67-7.14,13.78-16.31,22.99c0,1.97,6.87,12.91,13.05,12.91
	c4.34,0,7.82-3.82,9.82-6.68c1.12-11.35,5-23.4,5.84-28.28c0.84-4.49,3.63-4.93,4.89-5.35c1.27-0.42,5.39-1.52,6.8-1.89
	c6.39-1.02,4.35,3.46,3.81,6.3c-0.68,3.54-5.12,17.16-6.8,24.25c-1.68,7.09-1.18,13.23,2.99,13.23c4.99,0,10.41-5.82,13.65-9.98
	c1.32-10.82,4.85-21.91,5.65-26.54c0.84-4.49,3.62-4.93,4.89-5.35c1.27-0.42,5.39-1.52,6.8-1.89c6.39-1.02,4.35,3.46,3.81,6.3
	c-0.68,3.54-5.12,17.16-6.8,24.25c-1.68,7.09-1.18,13.23,2.99,13.23c4.26,0,8.83-4.24,12.09-8.07c1.1-11.4,5.01-23.55,5.86-28.46
	c0.84-4.49,3.63-4.93,4.89-5.35c1.27-0.42,5.39-1.52,6.8-1.89c6.39-1.02,4.35,3.46,3.81,6.3c-0.68,3.54-5.12,17.16-6.8,24.25
	c-1.68,7.09-1.18,13.23,2.99,13.23c4.99,0,10.41-5.82,13.65-9.98C611.98,178.36,615.51,167.27,616.31,162.64L616.31,162.64z
	 M85.65,162.64c0.84-4.49,3.63-4.93,4.89-5.35c1.27-0.42,5.39-1.52,6.8-1.89c6.39-1.02,4.35,3.46,3.81,6.3
	c-0.68,3.54-5.12,17.16-6.8,24.25c-1.68,7.09-1.63,8.19-2.18,11.02c-0.84,4.7-0.45,7.22-2.72,7.87c-1.02,0.39-6.12,1.26-7.61,1.26
	c-1.56,0-3.74,1.26-2.99-5.35C79.74,188.93,84.77,167.76,85.65,162.64L85.65,162.64z M412.99,179.66c-4.34,0-6.74,3.22-6.74,6.19
	c0,6.94,6.28,6.6,7.41,6.6c0,3.4-2.62,6.72-8.77,6.72c-4.17,0-4.67-6.14-2.99-13.23c1.68-7.08,6.12-20.7,6.8-24.25
	c0.54-2.83,2.58-7.32-3.81-6.3c-1.4,0.37-5.53,1.47-6.8,1.89c-1.27,0.42-4.06,0.86-4.89,5.35c-0.8,4.64-4.34,15.74-5.65,26.57
	c-4.57,5.52-6.84,6.65-15.2,6.79c6.14-8.82,8.34-20.91,8.34-25.49c0-8.58-5.23-14.48-11.69-14.48c-2.99,0-9.59,0.52-18.95,9.58
	c0.48-1.71,0.85-3.09,1.01-3.91c0.54-2.83,2.58-7.32-3.81-6.3c-1.4,0.37-5.53,1.47-6.8,1.89c-1.27,0.42-4.06,0.86-4.89,5.35
	c-0.56,3.23-1.85,12.29-4.34,25.97c-4.79,5.9-6.93,7.19-15.09,7.38c6.7-9.49,7.74-22.44,7.74-25.16c0-12.04-7.41-14.8-11.15-14.8
	c-12.78,0-21.21,10.39-21.21,10.39s1.11-10.3,6.7-19.46c7.21-11.57,13.14-4.17,18.59-4.17c5.46,0,7.34-7.74,8.35-11.57
	c1.01-3.84-0.73-3.29-2.29-2.42c-1.56,0.87-4.78,3.7-15.09,2.69c-10.31-1.01-13.68,3.5-19.13,11.17
	c-5.46,7.67-12.09,30.53-12.09,42.34c0,1.99,0.16,3.91,0.49,5.74c-0.62,0.81-6.82,8.75-11.91,8.75c-2.04,0-3.26-2.05-3.26-5.98
	c0-7.79,2.79-19.29,10.06-34.95c0.54-1.57,0.41-3.15-2.18-3.15c-5.85,0-14.68,6.93-14.68,6.93s-4.73-6.61-11.05-6.61
	c-8.69,0-20.92,8.24-20.92,19.72c0,12.07,11.41,15.51,26,10.51c-0.88,3.09-8.01,16.57-18.92,16.57c-4.42,0-5.6-4.12-5.6-4.12
	s3.24-1.47,3.24-5.89c0-4.42-2.59-6.18-6.19-6.18c-3.28,0-6.42,2.88-6.52,7.56c-1.24,1.52-4.45,4.96-8.16,4.96
	c-3.4,0-4.66-5.83-2.99-12.91c1.95-8.17,4.07-12.82,4.12-17.45c0.22-6.91-2.31-12.47-9.28-12.47c-5.15,0-11.42,4.16-18.82,10.89
	c-0.39-6.27-3.06-10.89-9.47-10.89c-5.05,0-11.18,4.01-18.4,10.52c0.62-2.15,1.09-3.88,1.27-4.85c0.54-2.83,2.58-7.32-3.81-6.3
	c-1.4,0.37-5.53,1.47-6.8,1.89c-1.27,0.42-4.06,0.86-4.89,5.35c-0.62,3.58-3.26,15-5.1,25.59c-0.98,1.83-5.39,9.37-11.49,9.37
	c-6.19,0-13.05-10.94-13.05-12.91c9.18-9.21,16.32-17.32,16.32-22.99c0-3.62-2.11-7.56-6.25-7.56c-5.44,0-7.89,3.54-7.89,7.56
	c0,4.25,2.17,4.8,2.17,8.5c-0.07,6.22-10.33,12.04-15.77,17.32c-0.14,1.65,3.67,18.89,17.4,18.89c7.25,0,14.58-7.82,17.48-11.29
	c-0.28,2.02-0.49,3.92-0.62,5.62c-0.75,6.61,1.43,5.35,2.99,5.35c1.5,0,6.59-0.87,7.61-1.26c2.27-0.66,1.88-3.17,2.72-7.87
	c0.54-2.83,0.5-3.94,2.18-11.02c0.35-1.5,0.83-3.29,1.37-5.21c4.29-10.46,11.45-17.78,15.76-17.78c1.03,0,3.88,0.49,3.26,3.46
	c-0.88,5.12-5.91,22.51-6.8,34.32c-0.75,6.61,1.43,5.35,2.99,5.35c1.49,0,6.59-0.87,7.61-1.26c2.27-0.66,1.88-3.17,2.72-7.87
	c0.54-2.83,0.5-3.94,2.18-11.02c0.74-3.14,1.55-6.2,2.27-8.95c4.3-8.42,10.26-14.04,14.04-14.04c1.03,0,3.88,0.49,3.26,3.46
	c-1.29,6.69-6.25,21.11-6.25,28.34c0,7.63,6.04,11.63,11.96,11.65c5.85,0.02,12.28-5.86,14.87-8.51c1.49,4.04,5.47,8.51,13.69,8.51
	c13.01,0,18.76-6.93,18.76-6.93s2.99,6.93,10.88,6.93c8.97,0,16.91-9.49,18.85-11.99c2.46,7.1,8.18,11.99,18.13,11.99
	c6.54,0,11.56-2.13,15.4-5.36c10.47-0.16,14.94-2.27,18.34-5.25c-1.22,6.36-2.66,13.49-4.37,21.32c-0.54,3.38-0.48,6.3,1.09,6.3
	c4.55,0,7.27-0.08,9.79-1.26c1.07-0.88,1.43-2.52,1.9-5.98c1.29-7.95,1.36-7.22,3.26-15.75c3.13,2.68,4.69,5.85,13.32,5.67
	c5.28,0,9.58-1.99,13.05-5.04c11.28-0.11,15.74-2.43,19.25-5.67c0.37,6.67,4.4,11.03,11.75,11.03c17.67,0,20.55-13.42,20.55-17.59
	C419.45,181.9,415.66,179.66,412.99,179.66z M251.08,179.85c-12.11,8.09-16.5,2.69-16.5-4.42c0-8.52,7.08-14.06,10.69-14.06
	C251.68,161.38,254.34,165.92,251.08,179.85z M294.76,202.95c-2.99,0-6.25-2.91-6.25-10.08c0-10.55,7.48-29.92,16.04-29.92
	c4.76,0,5.17,5.51,5.17,10.71C309.71,183.26,302.78,202.95,294.76,202.95z M351.59,202c-2.52,0-7.65-1.54-7.65-8.63
	c0-12.04,8.67-30.42,17.16-30.42c4.35,0,5.17,2.83,5.17,10.08C366.27,194.13,356.82,202,351.59,202z M450.57,159.8
	c2.72,0,3.81,1.68,3.81,2.83c0,4.41-4.62,3.88-4.62,9.45c0,4.62,2.9,5.98,5.17,5.98c5.62,0,8.43-5.77,8.43-10.71
	c0-9.34-7.8-11.23-12.51-11.34c-17.76,0-28.82,19.1-28.82,31.49c0,15.22,10.06,18.89,19.03,18.89c13.72,0,22.92-8.44,26.3-12.15
	c-0.33,2.34-0.59,4.53-0.74,6.48c-0.75,6.61,1.43,5.35,2.99,5.35c1.5,0,6.59-0.87,7.61-1.26c2.27-0.66,1.88-3.17,2.72-7.87
	c0.54-2.83,0.5-3.94,2.18-11.02c1.68-7.08,6.12-20.7,6.8-24.25c0.54-2.83,2.58-7.32-3.81-6.3c-1.4,0.37-5.53,1.47-6.8,1.89
	c-1.27,0.42-4.06,0.86-4.89,5.35c-0.62,3.61-3.31,15.2-5.15,25.86c-2.83,3.27-10.91,11.62-19.87,11.62
	c-6.53,0-12.51-3.15-12.51-13.23C435.88,174.81,443.59,159.8,450.57,159.8L450.57,159.8z"/>
<path class="st1" d="M612.08,242.56v-8.63h4.19c0.62,0,1.22,0.05,1.8,0.14c0.58,0.1,1.1,0.3,1.55,0.61
	c0.45,0.31,0.82,0.75,1.09,1.34c0.27,0.58,0.41,1.35,0.41,2.29c0,0.81-0.15,1.49-0.44,2.03c-0.29,0.54-0.66,0.98-1.1,1.31
	c-0.45,0.33-0.96,0.56-1.54,0.7c-0.58,0.14-1.16,0.2-1.74,0.2H612.08L612.08,242.56z M609.23,252.61h2.85v-7.78h4.68
	c1.05,0,2.01-0.16,2.91-0.48c0.89-0.32,1.66-0.76,2.31-1.34c0.65-0.57,1.16-1.25,1.54-2.05c0.38-0.79,0.57-1.67,0.57-2.64
	c0-1.18-0.19-2.19-0.57-3.04c-0.38-0.84-0.89-1.53-1.54-2.08c-0.65-0.54-1.4-0.93-2.27-1.18c-0.86-0.24-1.78-0.36-2.75-0.36h-7.73
	V252.61L609.23,252.61z M595.4,252.61h2.85v-18.61h6.77v-2.32h-16.31v2.32h6.69V252.61L595.4,252.61z M567.99,252.61h2.85v-9.73
	h10.81v9.73h2.85v-20.94h-2.85v8.83h-10.81v-8.83h-2.85V252.61L567.99,252.61z M548.63,252.61h14.65v-2.35h-11.83v-7.4h8.98v-2.35
	h-8.98v-6.48h11.6v-2.35h-14.42V252.61L548.63,252.61z M526.65,252.61h14.77v4.12h2.85v-6.5h-1.69v-18.56h-2.85v18.56H529.5v-18.56
	h-2.85V252.61L526.65,252.61z M500.14,226.09c0.29,1.16,0.93,2.09,1.93,2.79c1,0.7,2.2,1.05,3.62,1.05c0.7,0,1.35-0.09,1.96-0.28
	c0.61-0.18,1.16-0.44,1.64-0.77c0.48-0.33,0.89-0.73,1.22-1.21c0.33-0.47,0.56-1,0.7-1.58l-2.21-0.75
	c-0.21,0.68-0.59,1.25-1.13,1.73c-0.54,0.47-1.27,0.71-2.18,0.71c-0.93,0-1.66-0.24-2.2-0.71c-0.53-0.47-0.91-1.05-1.12-1.73
	L500.14,226.09L500.14,226.09z M497.21,252.61h2.85v-2.55l10.67-11.94v14.49h2.85v-20.94h-2.85v2.93l-10.67,11.94v-14.87h-2.85
	V252.61L497.21,252.61z M488.55,252.61h2.85v-20.94h-2.85V252.61L488.55,252.61z M473.28,250.23v-7.75h4.74
	c0.66,0,1.28,0.05,1.86,0.14c0.58,0.1,1.09,0.28,1.52,0.54c0.44,0.26,0.78,0.64,1.03,1.13c0.25,0.49,0.38,1.13,0.38,1.9
	c0,0.79-0.13,1.45-0.39,1.97c-0.26,0.52-0.62,0.93-1.08,1.24c-0.46,0.3-0.99,0.51-1.6,0.64c-0.61,0.13-1.26,0.19-1.96,0.19H473.28
	L473.28,250.23z M470.44,252.61h7.47c2.6,0,4.56-0.56,5.89-1.67c1.33-1.11,1.99-2.7,1.99-4.78c0-1.99-0.59-3.5-1.76-4.53
	c-1.17-1.03-2.86-1.54-5.07-1.54h-5.67l-0.03-8.42h-2.82V252.61L470.44,252.61z M452.65,250.31v-7.44h5.03
	c0.5,0,0.96,0.01,1.37,0.03c0.41,0.02,0.82,0.1,1.25,0.23c0.33,0.1,0.65,0.24,0.96,0.42c0.31,0.18,0.58,0.42,0.81,0.71
	c0.23,0.29,0.42,0.63,0.57,1.02c0.15,0.39,0.22,0.83,0.22,1.34c0,1.34-0.41,2.28-1.22,2.85c-0.81,0.56-1.86,0.84-3.14,0.84H452.65
	L452.65,250.31z M452.65,240.53v-6.56h4.04c1.57,0,2.8,0.23,3.69,0.68c0.89,0.46,1.34,1.27,1.34,2.45c0,0.62-0.11,1.15-0.32,1.58
	c-0.21,0.44-0.51,0.79-0.89,1.06c-0.38,0.27-0.83,0.47-1.35,0.59c-0.52,0.13-1.09,0.19-1.69,0.19H452.65L452.65,240.53z
	 M449.8,252.61h9.01c1.05,0,2-0.13,2.85-0.39c0.85-0.26,1.58-0.65,2.2-1.16c0.61-0.51,1.08-1.14,1.42-1.87
	c0.34-0.74,0.51-1.58,0.51-2.53c0-0.79-0.13-1.49-0.38-2.09c-0.25-0.6-0.57-1.11-0.94-1.54c-0.38-0.43-0.8-0.77-1.26-1.03
	c-0.47-0.26-0.91-0.46-1.34-0.59c0.35-0.18,0.69-0.41,1.03-0.7c0.34-0.29,0.63-0.62,0.89-1c0.25-0.38,0.45-0.79,0.61-1.23
	c0.16-0.45,0.23-0.91,0.23-1.39c0-1.01-0.19-1.85-0.58-2.54c-0.39-0.69-0.91-1.24-1.58-1.67c-0.67-0.43-1.44-0.73-2.31-0.92
	c-0.87-0.18-1.79-0.28-2.76-0.28h-7.59V252.61L449.8,252.61z M429.83,248.29c-0.56-0.76-0.98-1.67-1.26-2.71
	c-0.28-1.05-0.42-2.17-0.42-3.37c0-1.2,0.14-2.32,0.42-3.37c0.28-1.05,0.7-1.95,1.26-2.71c0.56-0.76,1.27-1.37,2.12-1.82
	c0.85-0.45,1.85-0.67,2.99-0.67s2.14,0.22,2.99,0.67c0.85,0.45,1.56,1.05,2.12,1.82c0.56,0.76,0.98,1.67,1.27,2.71
	c0.28,1.05,0.42,2.17,0.42,3.37c0,1.2-0.14,2.32-0.42,3.37c-0.28,1.05-0.7,1.95-1.27,2.71c-0.56,0.76-1.27,1.37-2.12,1.82
	c-0.85,0.45-1.85,0.67-2.99,0.67s-2.14-0.22-2.99-0.67C431.1,249.66,430.39,249.06,429.83,248.29L429.83,248.29z M430.45,252.23
	c1.25,0.6,2.75,0.9,4.49,0.9c1.71,0,3.18-0.3,4.42-0.9c1.24-0.6,2.26-1.4,3.05-2.41c0.79-1.01,1.38-2.17,1.77-3.49
	c0.39-1.32,0.58-2.69,0.58-4.12c0-1.43-0.18-2.81-0.55-4.12c-0.37-1.32-0.95-2.48-1.73-3.49c-0.79-1.01-1.8-1.81-3.05-2.41
	c-1.25-0.6-2.75-0.9-4.49-0.9c-1.71,0-3.18,0.3-4.42,0.9c-1.24,0.6-2.26,1.4-3.05,2.41c-0.79,1.01-1.38,2.17-1.77,3.49
	c-0.39,1.32-0.58,2.69-0.58,4.12c0,1.43,0.18,2.81,0.55,4.12c0.37,1.32,0.94,2.48,1.71,3.49
	C428.18,250.83,429.21,251.63,430.45,252.23L430.45,252.23z M407.01,250.23c0.35-0.43,0.65-0.9,0.92-1.41
	c0.26-0.51,0.5-1.1,0.71-1.77c0.21-0.67,0.4-1.43,0.57-2.29c0.16-0.86,0.31-1.85,0.45-2.98l0.96-7.73h6.39v16.18H407.01
	L407.01,250.23z M401.93,256.73h2.85v-4.12h13.92v4.12h2.85v-6.5h-1.69v-18.56H408l-1.02,9.12c-0.16,1.28-0.33,2.4-0.52,3.37
	c-0.19,0.97-0.42,1.83-0.68,2.57c-0.26,0.75-0.57,1.4-0.93,1.96c-0.36,0.56-0.77,1.07-1.24,1.54h-1.69V256.73L401.93,256.73z
	 M385.56,243.49l2.56-8.07c0.21-0.68,0.45-1.14,0.73-1.38c0.27-0.24,0.64-0.36,1.1-0.36c0.45,0,0.8,0.12,1.08,0.36
	c0.27,0.24,0.51,0.7,0.73,1.38l2.53,8.07H385.56L385.56,243.49z M379.95,252.26l2.67,0.64l2.21-7.03h10.17l2.24,7.03l2.73-0.64
	l-5.41-17.34c-0.17-0.54-0.38-1.04-0.62-1.49c-0.24-0.45-0.54-0.84-0.9-1.15c-0.36-0.31-0.78-0.55-1.28-0.73
	c-0.49-0.17-1.09-0.26-1.79-0.26c-0.7,0-1.29,0.09-1.79,0.26c-0.49,0.18-0.92,0.42-1.28,0.74c-0.36,0.32-0.65,0.7-0.89,1.15
	c-0.23,0.45-0.44,0.95-0.61,1.51L379.95,252.26L379.95,252.26z M376.26,249.44c-0.58,0.23-1.12,0.44-1.61,0.61
	c-0.49,0.17-0.98,0.32-1.47,0.42c-0.48,0.11-0.99,0.19-1.53,0.25c-0.53,0.06-1.13,0.09-1.79,0.09c-2.44,0-4.28-0.72-5.52-2.15
	c-1.24-1.43-1.86-3.59-1.86-6.48c0-2.71,0.65-4.81,1.95-6.3c1.3-1.49,3.19-2.24,5.67-2.24c0.48,0,0.95,0.02,1.39,0.06
	c0.45,0.04,0.9,0.1,1.37,0.19c0.47,0.09,0.95,0.21,1.47,0.36c0.51,0.16,1.08,0.35,1.7,0.58l0.84-2.21
	c-0.87-0.35-1.86-0.66-2.95-0.93c-1.09-0.27-2.4-0.41-3.91-0.41c-1.74,0-3.27,0.27-4.59,0.81c-1.32,0.54-2.42,1.3-3.3,2.28
	c-0.88,0.98-1.54,2.13-1.99,3.46c-0.45,1.33-0.67,2.77-0.67,4.34c0,1.57,0.17,3.02,0.52,4.37c0.35,1.35,0.93,2.5,1.73,3.47
	c0.8,0.97,1.86,1.73,3.18,2.28c1.32,0.55,2.94,0.83,4.88,0.83c1.45,0,2.75-0.13,3.88-0.41c1.13-0.27,2.26-0.66,3.39-1.16
	L376.26,249.44L376.26,249.44z"/>
<path class="st0" d="M665.38,259.19c2.31,2.07,14.56,3.92,14.33,0c-0.23-3.92-7.94-18.15-10.67-25.95
	c-11.61-33.12-11.61-64.08-11.2-72c0.5-9.79,2.2-35.85,24.57-57.2c26.65-22.86,48.86-17.62,55.6-54.53
	c6.74-36.91-0.84-49.49-0.84-49.49s-0.31-0.01-0.89-0.02h-1.74c-8.92,0.11-38.92,1.96-64.76,20.99
	c-30.75,22.65-37.07,47.82-37.07,47.82s-8.42-15.52-28.64-20.13c-20.22-4.61-53.07,5.03-53.07,5.03s-5.05,24.33,7.58,37.75
	c12.64,13.42,33.28,15.52,42.96,14.26c12.55-1.31,19.96,0.52,25.38,13.33c7.94,30.52-22.78,30-18.78,14.17
	c3.08-9.83-2.88-15.08-9.23-14.29c-6.35,0.79-11.69,8.99-4.61,19.36c19.38,23.36,47.83,4.72,41.67-22.25
	c-2.26-11.8-11.69-34.22-53.81-51.42c29.9,8.81,45.94,15.52,59.84,46.14c22.32-50.33,22.31-57.56,69.89-88.09
	c-52.23,52.43-57.57,85.83-62.35,114.46c-3.69,22.15,0.08,69.18,7.95,100.09C659.8,246.27,663.07,257.12,665.38,259.19
	L665.38,259.19z"/>
</svg>
